<svg height="46.25" width="51.78" xmlns="http://www.w3.org/2000/svg"><path d="m288.65 389.84a10.21 10.21 0 0 0 3 6.18c2.35 6.84 1.88 13.67 2.1 20.51a38.48 38.48 0 0 0 22.68.33m-11.7-2.63v-27.41m-8.74 6.11a10.91 10.91 0 0 0 4.08-7.62m-19.51 21.49c-.78-4.36-1.75-8.73 2.1-12.55a16.3 16.3 0 0 1 1-10.91m1.66-1.58c3.81-3.81 9.4-1.37 14.29-3.48m-4.3.94a8.11 8.11 0 0 0 3.23-5.37m15.31 19.08a10.91 10.91 0 0 1 -4.08-7.62m19.46 21.49c.78-4.36 1.75-8.73-2.1-12.55a16.3 16.3 0 0 0 -1-10.91m-1.66-1.58c-3.81-3.81-9.4-1.37-14.29-3.48m4.3.94a8.11 8.11 0 0 1 -3.23-5.37m9.75 16.52a9.42 9.42 0 0 1 -3.15 6.57 47 47 0 0 0 -1.51 15.58" fill="none" stroke="#0d6efd" stroke-linecap="round" stroke-linejoin="round" stroke-width="1.7" transform="translate(-279 -373)"/></svg>