<svg height="51.08" width="51.82" xmlns="http://www.w3.org/2000/svg"><path d="m293.77 371.85c4.9 9.39 3.51 17.21-1.38 24.16-3.53 6.61-2.56 15.15 2.06 25.23m22.66-49.38c-4.9 9.39-3.51 17.21 1.38 24.16 3.53 6.61 2.56 15.15-2.06 25.23m-10.81-31.32v2.27m-13.22 3.8c8.7 3.51 17.4 3.72 26.1 0m-27.6 3.88a46.68 46.68 0 0 1 14.72 8.75 37.89 37.89 0 0 1 14.45-8.51m-14.45 8.51v12.37m-24.76-38h11.64m-3.77-3.16 3.77 3.16-3.5 3.43m42-3.43h-11.67m3.77-3.16-3.77 3.16 3.46 3.46" fill="none" stroke="#0d6efd" stroke-linecap="round" stroke-linejoin="round" stroke-width="1.7" transform="translate(-280 -371)"/></svg>