<svg height="51.77" width="51.43" xmlns="http://www.w3.org/2000/svg"><path d="m280.85 396.24v19.37c.67 6.59 6.85 8.18 11.37 4a11.92 11.92 0 0 1 9.79-2.74 40.26 40.26 0 0 0 25.69-7.58c3.63-2.31 3.44-5.58 1.58-9.26l-12-21.9c-1.6-1.91-3.16-3.85-6.11-4.42-5.19-2.2-9.68-3.15-11.16 1.16-2.71 6.4-1.3 8 1.68 7.79a25.43 25.43 0 0 0 8.32-.84c4.43 4.7 2 11.1 5.05 16.84-4.92-3.19-10-3.61-15.16-.21-3.25-3-6.67-5.56-11.16-4.74a5 5 0 0 1 -6.21.11c-1.27.26-1.65 1.2-1.68 2.42zm17.3 12.87c6.59 3.51 12.69 3.12 18.24-1.61m-30.56 8.36c5.3-1.47 2.8-8.72 7.53-12" fill="none" stroke="#0d6efd" stroke-linecap="round" stroke-linejoin="round" stroke-width="1.7" transform="translate(-280 -371)"/></svg>