<svg height="48.52" width="36.01" xmlns="http://www.w3.org/2000/svg"><path d="m288.26 372.85a39.2 39.2 0 0 1 1.14 27.15c-1.5 4.71-2.16 10.69-.83 19.65m33.1-46.82a39.2 39.2 0 0 0 -1.14 27.17c1.5 4.71 2.16 10.69.83 19.65m-20.79-11.61c2.66 4.61 6.37 4.28 8.84 0m-7.51 11.54 2.46-8.27m3.84 8.27-2.46-8.27m-17.86 1.42a46.67 46.67 0 0 0 15.34 2.41m18.93-2.41a46.67 46.67 0 0 1 -15.34 2.41m-16.86-17.14c9 3.9 18.93 4.09 30 0m-25-2.87 4.31 5.52m15.58-5.52-4.31 5.52m-7.15-15.78c-1.33 2.15-4.16 1.76-6.91 1.52m6.91 3.42c-1.33 2.15-4.16 1.76-6.91 1.52m10-6.47c1.33 2.15 4.16 1.76 6.91 1.52m-6.91 3.42c1.33 2.15 4.16 1.76 6.91 1.52m-8.46 3.29v2.39m-1.41-23.76-2.78 2.18h-7.9m13.76-2.18 2.78 2.18h7.9" fill="none" stroke="#0d6efd" stroke-linecap="round" stroke-linejoin="round" stroke-width="1.7" transform="translate(-287 -372)"/></svg>