<svg height="40.37" width="41.31" xmlns="http://www.w3.org/2000/svg"><path d="m285.85 377.85c0 2.71 2.2 5.95 5.59 5.95l10.3.44m-12.74-1.08 2.47 16.45m14.22-9.14v16.47m0 3.08v1.09m-13.42-8c.12 3.78 1.55 6.42 4.57 7.69 1.61.89 2.17 2.64 2 4.57m-6.8 1.16c-1.34-3.93-1.32-7.45.73-10.37m-1.45 7.55a48.9 48.9 0 0 0 29.13 0m-26.35-16.93c6.16-1.71 1.21-9.56 10.36-9.19m1.19 7.19a7.91 7.91 0 0 1 -5.69 0m5.69 5.23a7.91 7.91 0 0 1 -5.69 0m5.69 5.23a7.91 7.91 0 0 1 -5.69 0m25.49-27.38c0 2.71-2.2 5.95-5.59 5.95l-10.3.44m12.77-1.07-2.47 16.45m-.8 3.48c-.12 3.78-1.55 6.42-4.57 7.69-1.61.89-2.17 2.64-2 4.57m6.8 1.16c1.34-3.93 1.32-7.45-.73-10.37m-1.41-9.38c-6.16-1.71-1.21-9.56-10.36-9.19m-1.19 7.19a7.91 7.91 0 0 0 5.69 0m-5.63 5.22a7.91 7.91 0 0 0 5.69 0m-5.69 5.23a7.91 7.91 0 0 0 5.69 0" fill="none" stroke="#0d6efd" stroke-linecap="round" stroke-linejoin="round" stroke-width="1.7" transform="translate(-285 -377)"/></svg>