<svg height="46.52" width="42.26" xmlns="http://www.w3.org/2000/svg"><path d="m291.59 373.85c-.81 8.32-6 16.37-6.71 25-.29 6.85 1.39 13.31 3.49 19.68m14.22.18a48.27 48.27 0 0 0 1.25-13.42m1.28-2.15c-2 4.07-5.56 5.6-10.15 5.55m.27 9.57v-4.93m-1.59 1.42 1.59-1.42 1.42 1.22m22-40.65c.81 8.32 6 16.37 6.71 25 .29 6.85-1.39 13.31-3.49 19.68m-14.22.18a48.27 48.27 0 0 1 -1.25-13.42m-1.28-2.15c2 4.07 5.56 5.6 10.15 5.55m-.28 9.48v-4.93m1.59 1.42-1.59-1.43-1.42 1.22m-27.16-23.08h37.28l-18.57 11.68-18.7-11.68z" fill="none" stroke="#0d6efd" stroke-linecap="round" stroke-linejoin="round" stroke-width="1.7" transform="translate(-284 -373)"/></svg>